<?xml version="1.0" encoding="utf-8"?>
<!-- Generator: Adobe Illustrator 24.2.3, SVG Export Plug-In . SVG Version: 6.00 Build 0)  -->
<svg version="1.1" id="Capa_1" xmlns="http://www.w3.org/2000/svg" xmlns:xlink="http://www.w3.org/1999/xlink" x="0px" y="0px"
	 viewBox="0 0 27 13" style="enable-background:new 0 0 27 13;" xml:space="preserve">
<path d="M12.98,6.16C12.8,2.73,9.97,0,6.5,0C2.91,0,0,2.91,0,6.5S2.91,13,6.5,13c1.72,0,3.28-0.67,4.45-1.77V13H13V6.16H12.98z
	 M6.5,10.95c-2.46,0-4.45-1.99-4.45-4.45S4.04,2.05,6.5,2.05s4.45,1.99,4.45,4.45S8.96,10.95,6.5,10.95z"/>
<path d="M26.89,6.84V0l-2.05,0v1.77C23.68,0.67,22.12,0,20.39,0c-3.59,0-6.5,2.91-6.5,6.5s2.91,6.5,6.5,6.5
	c3.47,0,6.3-2.73,6.48-6.16H26.89z M24.84,6.5c0,2.46-1.99,4.45-4.45,4.45s-4.45-1.99-4.45-4.45s1.99-4.45,4.45-4.45
	S24.84,4.04,24.84,6.5z"/>
</svg>
