<?xml version="1.0" encoding="utf-8"?>
<!-- Generator: Adobe Illustrator 24.2.3, SVG Export Plug-In . SVG Version: 6.00 Build 0)  -->
<svg version="1.1" id="Capa_1" xmlns="http://www.w3.org/2000/svg" xmlns:xlink="http://www.w3.org/1999/xlink" x="0px" y="0px"
	 viewBox="0 0 61 13" style="enable-background:new 0 0 61 13;" xml:space="preserve">
<path d="M12.98,6.16C12.8,2.73,9.97,0,6.5,0C2.91,0,0,2.91,0,6.5S2.91,13,6.5,13c1.72,0,3.28-0.67,4.45-1.77V13H13V6.16H12.98z
	 M6.5,10.95c-2.46,0-4.45-1.99-4.45-4.45S4.04,2.05,6.5,2.05s4.45,1.99,4.45,4.45S8.96,10.95,6.5,10.95z"/>
<path d="M60.88,6.16C60.7,2.73,57.87,0,54.39,0c-3.59,0-6.5,2.91-6.5,6.5s2.91,6.5,6.5,6.5c1.72,0,3.28-0.67,4.45-1.77V13h2.05V6.16
	H60.88z M54.39,10.95c-2.46,0-4.45-1.99-4.45-4.45s1.99-4.45,4.45-4.45c2.46,0,4.45,1.99,4.45,4.45S56.85,10.95,54.39,10.95z"/>
<path d="M20.87,10.95c-2.34,0-4.25-1.81-4.43-4.11h-0.02V1.77V0h-2.05v6.84h0.02c0.18,3.43,3.01,6.16,6.48,6.16
	c0.12,0,0.23-0.01,0.34-0.02v-2.05C21.1,10.94,20.98,10.95,20.87,10.95z"/>
<path d="M46.51,6.16C46.33,2.73,43.5,0,40.03,0c-2.3,0-4.32,1.2-5.47,3c-1.16-1.8-3.17-3-5.47-3c-3.47,0-6.3,2.73-6.48,6.16h-0.02
	V13h2.05v-1.77V6.16h0.02c0.18-2.3,2.09-4.11,4.43-4.11s4.25,1.81,4.43,4.11h0.02v5.07V13h2.05v-1.77V6.16h0.02
	c0.18-2.3,2.09-4.11,4.43-4.11s4.25,1.81,4.43,4.11h0.02v5.07V13h2.05V6.16H46.51z"/>
</svg>
